<svg xmlns="http://www.w3.org/2000/svg" viewBox="0 0 719.8 583.23"><g data-name="Layer 2"><path d="M207.34 568.59l-203.17-343A29.78 29.78 0 010 210.39V29.84A29.84 29.84 0 0129.84 0h19c106.54 0 204 53.83 260.75 144l49 77.92L406 145.7C462.54 54.47 560.41 0 667.77 0H690a29.84 29.84 0 0129.8 29.84v180.55a29.78 29.78 0 01-4.17 15.2l-203 342.8a29.84 29.84 0 01-50.93.69L359.28 406.42 258.37 569.11a29.83 29.83 0 01-51.03-.52zM416.62 314l68.53 108.89L622 191.78v-89.07a208.91 208.91 0 00-133 94.52zM97.77 191.78l136.58 230.58 67-108-74.46-118.29a209 209 0 00-129.12-92.63z" fill="#67be5b" data-name="Layer 1"/></g></svg>